<svg xmlns="http://www.w3.org/2000/svg" viewBox="0 0 92.98 32.84"><defs><style>.cls-1{fill:#ffb43b;}.cls-2{fill:#960;}</style></defs><g id="Layer_2" data-name="Layer 2"><g id="Stringlish_Logo"><g id="Logo"><path class="cls-1" d="M27.77,5.77c.05.05,0,.11-.07.15a1.14,1.14,0,0,1-.42.11,5.7,5.7,0,0,1-.62,0c-.23,0-.45,0-.66,0A3.86,3.86,0,0,1,25.44,6a.46.46,0,0,1-.29-.17,11.25,11.25,0,0,0-2.46-2.31,14.72,14.72,0,0,0-3-1.61A16.38,16.38,0,0,0,16.53,1a17.09,17.09,0,0,0-3.1-.3c-.77,0-1.57,0-2.4.11a16.46,16.46,0,0,0-2.43.42A11.39,11.39,0,0,0,6.35,2,7.18,7.18,0,0,0,4.49,3.34a6,6,0,0,0-1.26,2A7,7,0,0,0,2.76,8a7.37,7.37,0,0,0,.35,2.36,6.23,6.23,0,0,0,.95,1.79,5.85,5.85,0,0,0,1.41,1.31,9.49,9.49,0,0,0,1.73.91A12.18,12.18,0,0,0,9.11,15c.67.16,1.32.29,2,.4.38.05.77.11,1.17.15l1.28.16c.88.11,1.8.26,2.77.47a21.23,21.23,0,0,1,2.83.8,17.5,17.5,0,0,1,2.64,1.18,10,10,0,0,1,2.2,1.6,7,7,0,0,1,1.5,2.08A6,6,0,0,1,26,24.42a6.68,6.68,0,0,1-.51,2.66,7.23,7.23,0,0,1-1.36,2.13,8.57,8.57,0,0,1-2,1.62A13.36,13.36,0,0,1,19.63,32a17.91,17.91,0,0,1-2.76.66,19.59,19.59,0,0,1-2.83.22,18.39,18.39,0,0,1-2.33-.17,24.16,24.16,0,0,1-2.6-.48c-.88-.2-1.74-.44-2.56-.71a15.39,15.39,0,0,1-2.21-.89,7,7,0,0,1-1.55-1,1.4,1.4,0,0,1-.59-1c0-.09.14-.15.43-.21a5.53,5.53,0,0,1,.94-.07,3.47,3.47,0,0,1,.89.07.74.74,0,0,1,.32.17,12.06,12.06,0,0,0,2.1,1.66,13,13,0,0,0,2.3,1.15,13.4,13.4,0,0,0,4.83.9,14.4,14.4,0,0,0,2.14-.16,11.8,11.8,0,0,0,2.15-.5,9.6,9.6,0,0,0,1.95-.9,6.55,6.55,0,0,0,1.59-1.37,5.86,5.86,0,0,0,1.06-1.86A6.56,6.56,0,0,0,23.26,25a5.65,5.65,0,0,0-.49-2.21,5.87,5.87,0,0,0-1.2-1.71,7.58,7.58,0,0,0-1.76-1.26,13.62,13.62,0,0,0-2.11-.89,18.86,18.86,0,0,0-2.27-.58c-.77-.15-1.52-.26-2.25-.34l-2.12-.27c-.88-.13-1.76-.3-2.65-.51a19.48,19.48,0,0,1-2.55-.83,13.78,13.78,0,0,1-2.29-1.19,8,8,0,0,1-1.86-1.6,7.05,7.05,0,0,1-1.25-2A6.8,6.8,0,0,1,0,9,7.33,7.33,0,0,1,.6,6,7.66,7.66,0,0,1,2.22,3.62a10,10,0,0,1,2.4-1.7A15.9,15.9,0,0,1,7.53.81,22.07,22.07,0,0,1,10.69.19,26.17,26.17,0,0,1,13.83,0a23.69,23.69,0,0,1,4,.33,19.32,19.32,0,0,1,3.74,1,17.16,17.16,0,0,1,3.39,1.79A14.09,14.09,0,0,1,27.77,5.77Z"/><path class="cls-2" d="M31.48,22.47a9.06,9.06,0,0,0,0,.94,2.53,2.53,0,0,0,.16.74,1,1,0,0,0,.33.48.9.9,0,0,0,.57.17.83.83,0,0,0,.42-.11,2,2,0,0,0,.4-.27,2.9,2.9,0,0,0,.36-.34l.29-.32h0l.1-.11.14-.08.23-.05.36,0a4.24,4.24,0,0,1,.51,0,1.16,1.16,0,0,1,.36.09l-.28.29h.09a2.68,2.68,0,0,1-1.17.95,4.41,4.41,0,0,1-1.8.34A4.71,4.71,0,0,1,31.1,25a2.22,2.22,0,0,1-.91-.55,1.84,1.84,0,0,1-.45-.85,4.52,4.52,0,0,1-.1-1.14l.07-3.73H28.23a3.23,3.23,0,0,1-.68-.06c-.18,0-.27-.1-.27-.17s.09-.14.27-.16a6.39,6.39,0,0,1,.68,0h1.48l.17-5.47c0-.06.1-.12.26-.17a2.27,2.27,0,0,1,.66-.08,2.77,2.77,0,0,1,.7.07q.21.08.21.18l-.14,5.47h2.52a3,3,0,0,1,.66.07c.19.05.28.1.28.17s-.09.12-.28.14a4.16,4.16,0,0,1-.66,0H31.55c0,.18,0,.39,0,.63s0,.44,0,.62l0,1.24C31.48,21.63,31.48,22.05,31.48,22.47Zm4.26,1.15.06.06a.09.09,0,0,0,0-.05v-.06Z"/><path class="cls-2" d="M38,18.58a.37.37,0,0,0-.15.06l-.27.17-.31.23-.31.22a1.93,1.93,0,0,1-.34.19,1.66,1.66,0,0,1-.52.07,1.43,1.43,0,0,1-.62-.11.72.72,0,0,1-.27-.22c0-.1.12-.22.35-.34a4.61,4.61,0,0,1,.83-.34c.32-.1.64-.19,1-.26a3.44,3.44,0,0,1,.72-.1,3.12,3.12,0,0,1,.81.09,1.69,1.69,0,0,1,.54.25,1.16,1.16,0,0,1,.32.38,1.72,1.72,0,0,1,.16.45,6.22,6.22,0,0,1,1.26-.82,3.36,3.36,0,0,1,1.55-.35,3.63,3.63,0,0,1,1,.12,2.36,2.36,0,0,1,.75.35,1.49,1.49,0,0,1,.47.53,1.42,1.42,0,0,1,.16.68,1.35,1.35,0,0,1-.15.58,2.06,2.06,0,0,1-.43.61,2.24,2.24,0,0,1-.65.48,2.27,2.27,0,0,1-1.61.1,2.26,2.26,0,0,0,.3-.18l.2-.12a.88.88,0,0,0,.17-.12A.86.86,0,0,0,43,21a1.27,1.27,0,0,0,.14-.38,3.44,3.44,0,0,0,0-.62,2.52,2.52,0,0,0-.16-1c-.11-.25-.26-.37-.46-.37a1.22,1.22,0,0,0-.59.26,6.27,6.27,0,0,0-.78.64c-.27.24-.52.5-.77.76a5.25,5.25,0,0,0-.53.65v4c0,.07-.1.13-.29.17a3.23,3.23,0,0,1-.66.06h-.47L38.24,25a.26.26,0,0,1-.13-.07.3.3,0,0,1,0-.1V19.54c0-.17,0-.33,0-.47a2.86,2.86,0,0,0,0-.35C38,18.63,38,18.58,38,18.58Z"/><path class="cls-2" d="M46.67,12.87a2.38,2.38,0,0,1,.9.16q.36.17.36.39a.29.29,0,0,1-.1.21.83.83,0,0,1-.28.17,1.45,1.45,0,0,1-.4.13,2.45,2.45,0,0,1-.48,0,2.25,2.25,0,0,1-.46,0,1.45,1.45,0,0,1-.4-.13.83.83,0,0,1-.28-.17.31.31,0,0,1-.11-.21.28.28,0,0,1,.1-.2A.85.85,0,0,1,45.8,13a1.9,1.9,0,0,1,.4-.12A2.42,2.42,0,0,1,46.67,12.87Zm.93,12c0,.06-.1.12-.29.16a2.62,2.62,0,0,1-.66.07h-.44L45.93,25A.22.22,0,0,1,45.8,25a.13.13,0,0,1,0-.1V18.39c0-.06.09-.12.26-.17a2.53,2.53,0,0,1,.68-.07,1.62,1.62,0,0,1,.71.1c.13.06.19.13.19.19Z"/><path class="cls-2" d="M50.66,25.08a3.56,3.56,0,0,1-.73,0c-.11,0-.17-.1-.17-.18V18.39c0-.07.09-.13.27-.17a2.58,2.58,0,0,1,.68-.07.88.88,0,0,1,.71.23.92.92,0,0,1,.21.53,5.61,5.61,0,0,1,1.22-.55,4.85,4.85,0,0,1,1.48-.21,3.83,3.83,0,0,1,1.37.21,2.24,2.24,0,0,1,.88.57,1.94,1.94,0,0,1,.45.85,3.9,3.9,0,0,1,.13,1v4c0,.07-.08.13-.25.17a3.17,3.17,0,0,1-.68.06c-.62,0-.93-.07-.93-.23V20.71a7.52,7.52,0,0,0,0-.86,2.12,2.12,0,0,0-.17-.67,1,1,0,0,0-.33-.44.79.79,0,0,0-.52-.16,1.62,1.62,0,0,0-.67.17,4,4,0,0,0-.72.44,6.26,6.26,0,0,0-.67.6,6.41,6.41,0,0,0-.57.64v4.42c0,.07-.09.13-.26.17A3.1,3.1,0,0,1,50.66,25.08Z"/><path class="cls-2" d="M65.44,22.65a9.16,9.16,0,0,1-.88,1,5.88,5.88,0,0,1-1.05.81,4.67,4.67,0,0,1-1.2.55,4.87,4.87,0,0,1-2.5.07,2.5,2.5,0,0,1-.89-.38,2,2,0,0,1-.58-.64,1.73,1.73,0,0,1-.2-.86,3,3,0,0,1,.35-1.45,5.06,5.06,0,0,1,.95-1.24,7.59,7.59,0,0,1,1.37-1,11.25,11.25,0,0,1,1.61-.75,11.67,11.67,0,0,1,1.68-.46,9.1,9.1,0,0,1,1.58-.16h.54a2.82,2.82,0,0,1,.52,0,1.6,1.6,0,0,1,.38.1.23.23,0,0,1,.16.21v7.1A4.33,4.33,0,0,1,67,27.12a3.25,3.25,0,0,1-.82,1.21,3.58,3.58,0,0,1-1.35.78,5.77,5.77,0,0,1-1.85.27A5.66,5.66,0,0,1,60.7,29a3.19,3.19,0,0,1-1.49-1.32h0c-.1-.15-.16-.21-.19-.19s.1-.1.26-.15a2.16,2.16,0,0,1,.65-.07,1.46,1.46,0,0,1,.65.1,1,1,0,0,1,.29.24c.1.13.22.27.36.43a3.45,3.45,0,0,0,.48.45,2.68,2.68,0,0,0,.62.35,2.13,2.13,0,0,0,.78.14,1.88,1.88,0,0,0,1-.27,2.22,2.22,0,0,0,.71-.75,3.5,3.5,0,0,0,.41-1.1,7.22,7.22,0,0,0,.13-1.36ZM61,24.8a2.26,2.26,0,0,0,1.12-.29,4.25,4.25,0,0,0,1-.79,6.26,6.26,0,0,0,.84-1.13,10.33,10.33,0,0,0,.69-1.32,12.83,12.83,0,0,0,.51-1.38,12,12,0,0,0,.34-1.3,6.72,6.72,0,0,0-1.19.2,8.11,8.11,0,0,0-1.22.44,7.11,7.11,0,0,0-1.16.67,5.22,5.22,0,0,0-1,.89,4.38,4.38,0,0,0-.67,1.09A3.32,3.32,0,0,0,60,23.19a2.21,2.21,0,0,0,.27,1.19A.82.82,0,0,0,61,24.8Z"/><path class="cls-1" d="M71.67,32H92.06a4.5,4.5,0,0,1,.45.06,1.9,1.9,0,0,1,.34.08c.09,0,.13.08.13.13s-.1.22-.31.27a5.24,5.24,0,0,1-1.1.08H70.66q-.54,0-.87,0a2.84,2.84,0,0,1-.55-.09.52.52,0,0,1-.28-.21.66.66,0,0,1-.08-.34V.54c0-.1.14-.18.41-.26a4.13,4.13,0,0,1,1-.11,3.87,3.87,0,0,1,1,.1q.36.1.36.27Z"/><path class="cls-2" d="M75.58,12.47a2.32,2.32,0,0,1,.89.16c.24.11.36.24.36.4a.3.3,0,0,1-.09.2.85.85,0,0,1-.28.18,2.09,2.09,0,0,1-.4.12,2.52,2.52,0,0,1-.48.05,2.42,2.42,0,0,1-.47-.05,2.09,2.09,0,0,1-.4-.12,1,1,0,0,1-.28-.18.28.28,0,0,1-.1-.2.29.29,0,0,1,.1-.21.84.84,0,0,1,.27-.18,2,2,0,0,1,.41-.12A2.42,2.42,0,0,1,75.58,12.47Zm.93,12c0,.06-.1.12-.29.17a3.18,3.18,0,0,1-.66.07l-.45,0a1.31,1.31,0,0,1-.27-.05.3.3,0,0,1-.14-.07.17.17,0,0,1,0-.1V18c0-.06.08-.11.25-.17a2.58,2.58,0,0,1,.68-.07,1.68,1.68,0,0,1,.72.1c.12.06.19.13.19.19Z"/><path class="cls-2" d="M80.9,24.37a1,1,0,0,0,.29-.05.78.78,0,0,0,.47-.45.85.85,0,0,0,.06-.4.74.74,0,0,0-.12-.33,1.54,1.54,0,0,0-.27-.31,1.91,1.91,0,0,0-.36-.25,3,3,0,0,0-.41-.19h0a5.5,5.5,0,0,1-.82-.38,3.9,3.9,0,0,1-.72-.52,3.23,3.23,0,0,1-.52-.62,1.33,1.33,0,0,1-.2-.67,1.9,1.9,0,0,1,.3-1.06,2.46,2.46,0,0,1,.8-.77,4.07,4.07,0,0,1,1.15-.46,5.21,5.21,0,0,1,1.33-.16,2.21,2.21,0,0,1,.32,0l.47,0,.54.08a2.93,2.93,0,0,1,.49.12,1.28,1.28,0,0,1,.37.16c.1.06.15.13.15.2s-.08.11-.25.15a3.82,3.82,0,0,1-.65.05,1.5,1.5,0,0,1-.35,0l-.23-.08h0l-.26-.1-.29-.1L82,18.19l-.19,0a2.56,2.56,0,0,0-.62.07,1.36,1.36,0,0,0-.52.27,1.19,1.19,0,0,0-.37.5,1.9,1.9,0,0,0-.12.8.74.74,0,0,0,.19.48,1.54,1.54,0,0,0,.45.33,3.35,3.35,0,0,0,.55.23,4,4,0,0,1,.52.17,7.18,7.18,0,0,1,.72.29,2.12,2.12,0,0,1,.52.38,1.45,1.45,0,0,1,.33.54,2.35,2.35,0,0,1,.09.8,1.46,1.46,0,0,1-.23.82,2,2,0,0,1-.59.55,2.81,2.81,0,0,1-.84.31,4.43,4.43,0,0,1-1,.1l-.53,0-.76-.09a4.57,4.57,0,0,1-.68-.16c-.2-.07-.29-.15-.29-.25a.13.13,0,0,1,.1-.13,1,1,0,0,1,.24-.06l.34,0h.36Z"/><path class="cls-2" d="M86.23,24.69a2.58,2.58,0,0,1-.71-.07c-.13,0-.19-.1-.19-.17V19.81h0a3.37,3.37,0,0,1-.61,0c-.16,0-.24-.06-.24-.1l.3-.18.28-.15.3-.16V6c0-.07.09-.12.27-.17a2.63,2.63,0,0,1,.68-.07,1.65,1.65,0,0,1,.72.1c.11.06.17.13.17.19V18.17a5.33,5.33,0,0,1,1-.31,5.49,5.49,0,0,1,1.11-.11,4.72,4.72,0,0,1,1.68.25,2.38,2.38,0,0,1,1,.7,2.46,2.46,0,0,1,.49,1.06,6.19,6.19,0,0,1,.13,1.33v3.36c0,.06-.09.12-.27.17a3.18,3.18,0,0,1-.66.07q-.9,0-.93-.24c0-.26,0-.53,0-.81s0-.58,0-.87V21.09c0-.38,0-.74,0-1.09a3.57,3.57,0,0,0-.19-.92,1.56,1.56,0,0,0-.4-.65,1,1,0,0,0-.7-.25,2.38,2.38,0,0,0-.58.08,4.71,4.71,0,0,0-.59.22,4.29,4.29,0,0,0-.55.31,2.91,2.91,0,0,0-.46.38v5.28c0,.07-.09.13-.26.17A3,3,0,0,1,86.23,24.69Z"/></g></g></g></svg>